<svg width="24" height="24" viewBox="0 0 24 24" fill="none" xmlns="http://www.w3.org/2000/svg">
<path fill-rule="evenodd" clip-rule="evenodd" d="M22.5306 3.53033C22.8235 3.23744 22.8235 2.76256 22.5306 2.46967C22.2377 2.17678 21.7628 2.17678 21.4699 2.46967L17.9809 5.95873C16.183 4.68496 14.1336 3.97998 11.9998 3.97998C8.15186 3.97998 4.64826 6.24858 2.25734 10.0069C1.71214 10.8614 1.46484 11.9559 1.46484 13.005C1.46484 14.054 1.71213 15.1486 2.25731 16.003C3.01266 17.1886 3.88584 18.2323 4.84009 19.0993L1.46967 22.4697C1.17678 22.7626 1.17678 23.2375 1.46967 23.5304C1.76256 23.8233 2.23744 23.8233 2.53033 23.5304L10.0003 16.0604L10.0085 16.0521L15.0463 11.0143C15.0511 11.0097 15.0559 11.0051 15.0606 11.0003L22.5306 3.53033ZM14.4845 9.45515L16.9026 7.03697C15.3877 6.01892 13.7128 5.47998 11.9998 5.47998C8.78799 5.47998 5.71174 7.37118 3.52266 10.8125L3.52204 10.8135C3.16745 11.369 2.96484 12.1642 2.96484 13.005C2.96484 13.8457 3.16745 14.6409 3.52204 15.1965L3.52238 15.197C4.22599 16.3014 5.03331 17.2574 5.90212 18.0372L8.45499 15.4844C7.96041 14.7816 7.66992 13.9266 7.66992 13C7.66992 10.6058 9.60571 8.66998 11.9999 8.66998C12.9266 8.66998 13.7817 8.96051 14.4845 9.45515ZM9.16992 13C9.16992 11.4342 10.4341 10.17 11.9999 10.17C12.5103 10.17 12.9864 10.3039 13.399 10.5403L9.54021 14.399C9.30385 13.9865 9.16992 13.5104 9.16992 13ZM19.58 8.34561C19.9028 8.086 20.3749 8.13719 20.6345 8.45995C21.0184 8.93722 21.3955 9.45007 21.7434 9.99815C22.288 10.8524 22.5351 11.9465 22.5351 12.995C22.5351 14.0441 22.2878 15.1386 21.7426 15.9931C19.3517 19.7514 15.8481 22.02 12.0001 22.02C10.6636 22.02 9.35494 21.7374 8.12907 21.2212C7.74732 21.0605 7.56815 20.6207 7.72889 20.239C7.88963 19.8572 8.32941 19.6781 8.71116 19.8388C9.76529 20.2826 10.8767 20.52 12.0001 20.52C15.212 20.52 18.2882 18.6288 20.4773 15.1875L20.4779 15.1865C20.8325 14.631 21.0351 13.8358 21.0351 12.995C21.0351 12.1543 20.8325 11.3591 20.4779 10.8035L20.4769 10.8019C20.1647 10.31 19.8218 9.84282 19.4657 9.40009C19.2061 9.07733 19.2573 8.60522 19.58 8.34561ZM16.2472 13.836C16.3223 13.4287 16.0529 13.0376 15.6456 12.9625C15.2382 12.8873 14.8471 13.1567 14.772 13.564C14.5684 14.6682 13.6577 15.5789 12.5536 15.7825C12.1462 15.8576 11.8769 16.2487 11.952 16.656C12.0271 17.0634 12.4182 17.3327 12.8256 17.2576C14.5414 16.9412 15.9308 15.5519 16.2472 13.836Z" fill="#25131A" fill-opacity="0.5"/>
</svg>
